# xmcd
#
# Track frame offsets:
#	150
#	18411
#	32395
#	45891
#	61787
#	75891
#	90223
#	103899
#	121522
#	139837
#	156225
#
# Disc length: 2264 seconds
#
# Revision: 0
# Processed by: cddbd v1.5.2PL0 Copyright (c) Steve Scherf et al.
# Submitted via: EasyCDDAExtractor 12.0.1.1
#
DISCID=6c08d60b
DTITLE=Sarah Johns - Big Love In a Small Town
DYEAR=2008
DGENRE=Country
TTITLE0=Baby My Heart
TTITLE1=Big Love In a Small Town
TTITLE2=He Hates Me
TTITLE3=If You Could Hold Your Woman
TTITLE4=It's Hard to Be a Girl (In A Young Man's World)
TTITLE5=A Lot to Let Go Of
TTITLE6=Muddy Water
TTITLE7=The One In the Middle
TTITLE8=That's Just Me Getting Over You
TTITLE9=Touch Me
TTITLE10=When Do I Get to Be a Woman
EXTD=
EXTT0=
EXTT1=
EXTT2=
EXTT3=
EXTT4=
EXTT5=
EXTT6=
EXTT7=
EXTT8=
EXTT9=
EXTT10=
PLAYORDER=
